<?xml version="1.0" encoding="iso-8859-1"?>
<!-- Generator: Adobe Illustrator 19.0.0, SVG Export Plug-In . SVG Version: 6.00 Build 0)  -->
<svg xmlns="http://www.w3.org/2000/svg" xmlns:xlink="http://www.w3.org/1999/xlink" version="1.1" id="Capa_1" x="0px" y="0px" viewBox="0 0 508 508" style="enable-background:new 0 0 508 508;" xml:space="preserve" width="512px" height="512px">
<g>
	<g>
		<path d="M458.8,188.5h-47.6L385,230.4l-26.2-41.9h-47.6c-22.6,0-41,18.4-41,41v81.9h-41h-65.5H41V49.2h311.4v26.7    c-14.8,10.4-24.6,27.6-24.6,47c0,31.6,25.7,57.4,57.4,57.4c31.7,0,57.4-25.7,57.4-57.4c0-31.7-25.7-57.4-57.4-57.4    c-5.7,0-11.2,0.9-16.4,2.4V47.7c9.5-3.4,16.4-12.4,16.4-23.1c0-13.6-11-24.6-24.6-24.6H32.8C19.2,0,8.2,11,8.2,24.6    c0,10.7,6.9,19.7,16.4,23.1v280.1h139.3V467h-57.4v41h16.4v-24.6h41h65.5h41V508h16.4v-41h-57.4V327.7h41v41h32.8V508H467V368.7    h32.8V229.4C499.8,206.8,481.4,188.5,458.8,188.5z M385.1,81.9c22.6,0,41,18.4,41,41c0,22.6-18.4,41-41,41c-22.6,0-41-18.4-41-41    C344.1,100.3,362.5,81.9,385.1,81.9z M24.6,24.6c0-4.5,3.7-8.2,8.2-8.2h327.7c4.5,0,8.2,3.7,8.2,8.2s-3.7,8.2-8.2,8.2H32.8    C28.3,32.8,24.6,29.1,24.6,24.6z M213,467h-32.8V327.7H213V467z M483.4,352.3h-32.8v139.3h-57.4V368.7h-16.4v122.9h-57.4V352.3    h-32.8V229.4c0-13.6,11-24.6,24.6-24.6h38.5l35.3,56.4l35.3-56.4h38.5c13.6,0,24.6,11,24.6,24.6V352.3z" fill="#8a9da8"/>
	</g>
</g>
<g>
	<g>
		<path d="M232.5,90.1l26.5,26.5l-63.3,73.9L136,120.7l-76.1,88.8l12.4,10.7l63.6-74.2l59.9,69.9l74.9-87.4l24.7,24.8V90.1H232.5z     M279.2,113.5l-7-7h7V113.5z" fill="#8a9da8"/>
	</g>
</g>
<g>
	<g>
		<rect x="418.5" y="245.8" width="41" height="16.4" fill="#8a9da8"/>
	</g>
</g>
<g>
</g>
<g>
</g>
<g>
</g>
<g>
</g>
<g>
</g>
<g>
</g>
<g>
</g>
<g>
</g>
<g>
</g>
<g>
</g>
<g>
</g>
<g>
</g>
<g>
</g>
<g>
</g>
<g>
</g>
</svg>
