<?xml version="1.0" encoding="iso-8859-1"?>
<!-- Generator: Adobe Illustrator 18.0.0, SVG Export Plug-In . SVG Version: 6.00 Build 0)  -->
<!DOCTYPE svg PUBLIC "-//W3C//DTD SVG 1.1//EN" "http://www.w3.org/Graphics/SVG/1.1/DTD/svg11.dtd">
<svg xmlns="http://www.w3.org/2000/svg" xmlns:xlink="http://www.w3.org/1999/xlink" version="1.1" id="Capa_1" x="0px" y="0px" viewBox="0 0 486.759 486.759" style="enable-background:new 0 0 486.759 486.759;" xml:space="preserve" width="512px" height="512px">
<g>
	<path d="M299.417,328.803l12.387,12.401c1.133-0.857,2.26-1.659,3.285-2.684c12.234-12.225,12.234-32.058,0-44.282l-13.515-13.516   c7.86-12.6,13.73-26.529,17.187-41.415h19.065c17.295,0,31.314-14.021,31.314-31.315c0-17.293-14.02-31.313-31.314-31.313h-19.05   c-3.473-14.886-9.342-28.809-17.188-41.407l13.5-13.51c12.234-12.225,12.234-32.057,0-44.281c-12.229-12.232-32.05-12.232-44.28,0   l-13.504,13.509c-12.612-7.851-26.528-13.724-41.42-17.187V54.728c0-17.294-14.019-31.314-31.315-31.314   c-17.294,0-31.313,14.02-31.313,31.314v19.075c-14.879,3.463-28.809,9.336-41.406,17.187L98.347,77.488   c-12.229-12.232-32.051-12.232-44.28,0c-12.234,12.225-12.234,32.057,0,44.281l13.5,13.493c-7.86,12.6-13.73,26.53-17.202,41.416   h-19.05C14.019,176.679,0,190.699,0,207.992c0,17.294,14.019,31.315,31.315,31.315H50.38c3.456,14.894,9.326,28.815,17.186,41.422   l-13.5,13.502c-12.234,12.225-12.234,32.058,0,44.281c6.115,6.116,14.128,9.174,22.14,9.174c8.013,0,16.025-3.058,22.141-9.174   l13.504-13.509c12.598,7.844,26.527,13.715,41.406,17.179v19.074c0,17.294,14.019,31.315,31.313,31.315   c3.684,0,7.189-0.756,10.475-1.927c-6.163-21.27-1.146-45.092,15.613-61.851C235.166,304.27,274.909,304.293,299.417,328.803z    M184.569,270.661c-34.604,0-62.676-28.058-62.676-62.669c0-34.609,28.072-62.667,62.676-62.667   c34.605,0,62.664,28.058,62.664,62.667C247.233,242.604,219.175,270.661,184.569,270.661z" fill="#8a9da8"/>
	<path d="M477.583,268.344c-12.234-12.231-32.05-12.225-44.283-0.007L313.868,387.74l-36.699-36.705   c-12.234-12.231-32.05-12.225-44.279-0.007c-12.234,12.231-12.234,32.056,0,44.288l58.838,58.854   c5.871,5.872,13.839,9.175,22.141,9.175c8.301,0,16.27-3.296,22.139-9.167l141.576-141.545   C489.817,300.401,489.817,280.578,477.583,268.344z" fill="#8a9da8"/>
</g>
<g>
</g>
<g>
</g>
<g>
</g>
<g>
</g>
<g>
</g>
<g>
</g>
<g>
</g>
<g>
</g>
<g>
</g>
<g>
</g>
<g>
</g>
<g>
</g>
<g>
</g>
<g>
</g>
<g>
</g>
</svg>
